<svg width="50" height="50" viewBox="0 0 50 50" fill="none" xmlns="http://www.w3.org/2000/svg">
<path d="M28.8277 13C28.316 13 27.8042 13.1954 27.4137 13.5859L23.6461 17.3535C23.2891 17.7105 23.2891 18.2895 23.6461 18.6465C24.0031 19.0035 24.582 19.0035 24.939 18.6465L26.2926 17.293C26.6836 16.902 27.3156 16.902 27.7066 17.293C28.0976 17.684 28.0976 18.3141 27.7066 18.7051L27.2496 19.1641C26.9496 19.4641 26.9496 19.95 27.2496 20.25C27.5496 20.55 28.0355 20.55 28.3355 20.25L28.2926 20.293C28.6836 19.902 29.3156 19.902 29.7066 20.293C30.0976 20.684 30.0976 21.316 29.7066 21.707L29.7496 21.6641C29.4496 21.9641 29.4496 22.45 29.7496 22.75C30.0496 23.05 30.5355 23.05 30.8355 22.75L32.2867 21.2988C32.6777 20.9078 33.3098 20.9078 33.7008 21.2988C34.0918 21.6898 34.0918 22.3219 33.7008 22.7129L31.3531 25.0605C30.9961 25.4175 30.9961 25.9965 31.3531 26.3535C31.7101 26.7105 32.2891 26.7105 32.6461 26.3535L36.4137 22.5859C37.1947 21.8049 37.1947 20.5388 36.4137 19.7578L30.2418 13.5859C29.8513 13.1954 29.3395 13 28.8277 13ZM21.5836 19.8281C21.3277 19.8281 21.0735 19.9256 20.8785 20.1211L18.5855 22.4141C17.8045 23.1951 17.8045 24.4602 18.5855 25.2422L19.6441 26.3027C20.2101 26.8687 20.2101 27.7865 19.6441 28.3535L19.4898 28.5098C18.4898 29.5098 15.8774 30.6534 14.7574 31.7734C13.0824 33.4484 12.4996 35.5811 13.4566 36.5391C14.4136 37.4961 16.5482 36.9152 18.2242 35.2402C19.3452 34.1192 20.4996 31.5 21.4996 30.5L21.6461 30.3535C22.2121 29.7875 23.1299 29.7875 23.6969 30.3535L24.7574 31.4141C25.5384 32.1951 26.8045 32.1951 27.5855 31.4141L29.8785 29.1211C30.2685 28.7301 30.2695 28.097 29.8785 27.707L22.2926 20.1211C22.0971 19.9256 21.8394 19.8281 21.5836 19.8281ZM15.9996 33C16.5526 33 17.0006 33.448 16.9996 34C17.0006 34.552 16.5526 35 15.9996 35C15.4476 35 14.9986 34.552 14.9996 34C14.9996 33.447 15.4476 33 15.9996 33Z" fill="#F64545"/>
</svg>
